<svg width="766" height="166" viewBox="0 0 766 166" fill="none" xmlns="http://www.w3.org/2000/svg">
<path d="M101.24 106.16V136.08C94.36 135.28 88.6 134.96 74.84 134.96H24.44C12.28 134.96 7.8 135.12 0.92 135.44C1.88 129.04 2.2 123.12 2.2 112.08V24.72C2.2 14.8 1.88 9.19999 0.92 1.36C7.48 1.67999 11.96 1.83999 24.44 1.83999H75.48C86.36 1.83999 91.8 1.51999 99.32 0.719995V30.64C91.96 29.84 86.2 29.52 75.48 29.52H33.88V53.04H68.44C79 53.04 82.84 52.88 92.44 51.92V81.52C84.92 80.72 79.48 80.4 68.44 80.4H33.88V107.28H75.16C87.32 107.28 94.36 106.96 101.24 106.16ZM149.163 134.96H116.043C117.003 127.44 117.323 120.72 117.323 110.8V61.52C117.323 50.48 117.003 43.76 116.043 37.36H147.883V44.08C147.883 45.04 147.723 47.44 147.723 48.56C157.803 38.96 167.563 34.96 180.683 34.96C191.723 34.96 200.523 38 206.443 43.92C212.843 50.32 215.563 58.16 215.563 70.8V110.96C215.563 120.24 216.043 128.24 216.843 134.96H183.563C184.523 127.28 184.843 120.56 184.843 110.8V78C184.843 71.6 184.203 68.88 182.283 66.16C180.203 63.28 176.523 61.68 171.723 61.68C162.763 61.68 154.763 67.28 147.883 78.48V110.8C147.883 119.92 148.203 126.64 149.163 134.96ZM246.182 37.36V34C246.182 26 245.863 19.6 244.903 12.08H277.543C276.743 18.64 276.263 26.32 276.263 34V37.36H282.023C289.063 37.36 292.743 37.2 297.703 36.56V63.12C292.903 62.48 288.743 62.16 282.983 62.16H276.263V103.12C276.263 107.6 277.063 109.84 279.143 111.28C280.903 112.4 283.463 113.04 286.503 113.04C290.663 113.04 293.703 112.24 297.703 110.16L300.103 134.48C292.903 136.72 286.663 137.68 278.023 137.68C267.143 137.68 259.623 135.92 254.503 132.08C248.423 127.44 246.182 122 246.182 111.12V62.16H240.103C234.983 62.16 230.823 62.48 226.183 63.12V36.4C230.823 37.04 234.823 37.36 240.423 37.36H246.182ZM389.785 37.36L382.105 66.16C374.745 63.92 370.745 63.12 365.785 63.12C357.625 63.12 351.385 66 346.745 71.76C343.705 75.6 342.585 78.96 341.945 86V110.96C341.945 121.2 342.265 127.28 343.225 134.96H310.105C311.065 126.96 311.385 121.2 311.385 110.8V61.52C311.385 49.84 311.065 44.24 310.105 37.36H341.945V50C349.785 39.76 359.385 35.44 373.945 35.44C379.065 35.44 382.265 35.76 389.785 37.36ZM431.484 126.32L401.564 58.8C394.684 42.8 394.044 41.36 391.964 37.36H426.684C427.484 42.48 429.564 49.36 432.924 58L447.644 94.96L461.884 58.64C466.364 47.6 467.804 42.96 468.764 37.36H503.484C499.484 45.68 499.484 45.68 493.884 58.8L457.244 143.44C450.844 158.48 439.324 165.36 421.084 165.36C414.044 165.36 407.964 164.56 399.164 162.64L402.684 137.2C407.964 139.92 411.004 140.72 415.164 140.72C421.244 140.72 425.724 138 428.124 133.2L431.484 126.32ZM602.198 1.83999H636.758C635.798 8.72 635.478 14.48 635.478 26V81.04C635.478 117.52 613.558 138.16 574.998 138.16C555.158 138.16 538.998 132.56 529.398 122.48C520.118 112.56 515.318 98.64 515.318 80.72V26C515.318 14.96 514.997 7.92 514.038 1.83999H548.598C547.638 7.75999 547.318 14.16 547.318 26V81.04C547.318 101.2 556.438 110.8 575.158 110.8C594.358 110.8 603.478 101.2 603.478 81.04V26C603.478 14 603.158 9.03999 602.198 1.83999ZM687.593 163.92H654.793C655.593 157.04 656.073 149.04 656.073 140.56V62.48C656.073 52.08 655.753 45.52 654.793 37.36H686.312V42.8C686.312 43.76 686.153 45.04 686.153 45.84C695.753 37.84 705.673 34.48 718.953 34.48C733.033 34.48 744.553 38.64 752.873 46.8C761.353 55.28 765.673 67.92 765.673 84.08C765.673 100.4 760.873 113.68 751.753 122.8C743.593 130.96 731.913 135.44 718.793 135.44C711.273 135.44 703.113 133.84 697.193 131.28C693.033 129.52 690.633 127.76 686.153 123.92C686.153 125.36 686.153 127.44 686.312 129.68V140.72C686.312 149.68 686.633 157.04 687.593 163.92ZM711.753 111.28C717.833 111.28 723.273 109.2 727.433 105.2C731.913 100.88 734.472 93.52 734.472 84.4C734.472 68.08 725.833 58.64 710.793 58.64C697.513 58.64 686.633 70.32 686.633 84.88C686.633 99.92 697.353 111.28 711.753 111.28Z" fill="#1F55DE"/>
</svg>
